<svg width="26" height="26" viewBox="0 -7 28 28" fill="none" xmlns="http://www.w3.org/2000/svg">
<path d="M9.75 23.1111C10.7472 23.1111 11.5556 22.3027 11.5556 21.3056C11.5556 20.3084 10.7472 19.5 9.75 19.5C8.75282 19.5 7.94444 20.3084 7.94444 21.3056C7.94444 22.3027 8.75282 23.1111 9.75 23.1111Z" fill="#DFE0E6"/>
<path d="M19.1389 23.1111C20.1361 23.1111 20.9444 22.3027 20.9444 21.3056C20.9444 20.3084 20.1361 19.5 19.1389 19.5C18.1417 19.5 17.3333 20.3084 17.3333 21.3056C17.3333 22.3027 18.1417 23.1111 19.1389 23.1111Z" fill="#DFE0E6"/>
<path d="M23.9056 4.615C23.8383 4.5276 23.7519 4.45677 23.653 4.40795C23.5541 4.35912 23.4453 4.3336 23.335 4.33333H6.65167L6.32667 3.30056C6.29097 3.18966 6.22897 3.08906 6.14597 3.00731C6.06297 2.92557 5.96142 2.86511 5.85 2.83111L2.88889 1.92111C2.79784 1.89313 2.70217 1.88336 2.60734 1.89236C2.51252 1.90135 2.42039 1.92893 2.33622 1.97353C2.16624 2.0636 2.039 2.21751 1.9825 2.40139C1.92599 2.58527 1.94485 2.78407 2.03492 2.95405C2.12499 3.12403 2.27889 3.25127 2.46278 3.30778L5.05555 4.10222L8.36333 14.5528L7.18611 15.5206L7.09222 15.6144C6.80109 15.9516 6.63615 16.3793 6.62561 16.8246C6.61507 17.2699 6.75959 17.7051 7.03444 18.0556C7.23129 18.2949 7.48143 18.4849 7.76485 18.6104C8.04828 18.7358 8.35712 18.7931 8.66667 18.7778H20.7206C20.9121 18.7778 21.0958 18.7017 21.2312 18.5662C21.3667 18.4308 21.4428 18.2471 21.4428 18.0556C21.4428 17.864 21.3667 17.6803 21.2312 17.5449C21.0958 17.4094 20.9121 17.3333 20.7206 17.3333H8.55111C8.46794 17.3305 8.38692 17.3063 8.31585 17.263C8.24479 17.2197 8.18609 17.1588 8.14543 17.0862C8.10477 17.0136 8.08353 16.9317 8.08374 16.8485C8.08396 16.7653 8.10563 16.6835 8.14667 16.6111L9.88722 15.1667H21.0311C21.1961 15.1715 21.3577 15.1196 21.4891 15.0198C21.6206 14.9199 21.7138 14.778 21.7533 14.6178L24.0644 5.22889C24.0864 5.12122 24.0835 5.00996 24.056 4.90357C24.0284 4.79719 23.977 4.6985 23.9056 4.615V4.615Z" fill="#DFE0E6"/>
</svg>
