<svg width="25" height="25" viewBox="0 0 25 25" fill="none" xmlns="http://www.w3.org/2000/svg">
<path d="M2.69375 1.64531C2.56297 1.5799 2.41645 1.55251 2.27088 1.56625C2.1253 1.57999 1.98649 1.63431 1.87026 1.72303C1.75402 1.81175 1.66502 1.93131 1.61338 2.06812C1.56173 2.20492 1.54952 2.35347 1.57812 2.49687L3.77031 10.075C3.81119 10.2162 3.89108 10.343 4.00081 10.4409C4.11055 10.5387 4.24566 10.6036 4.39062 10.6281L13.2812 12.1172C13.7 12.2 13.7 12.8 13.2812 12.8828L4.39062 14.3719C4.24566 14.3964 4.11055 14.4613 4.00081 14.5591C3.89108 14.657 3.81119 14.7838 3.77031 14.925L1.57812 22.5031C1.54952 22.6465 1.56173 22.7951 1.61338 22.9319C1.66502 23.0687 1.75402 23.1882 1.87026 23.277C1.98649 23.3657 2.1253 23.42 2.27088 23.4338C2.41645 23.4475 2.56297 23.4201 2.69375 23.3547L23.0062 13.1984C23.1358 13.1335 23.2448 13.0338 23.321 12.9104C23.3971 12.7871 23.4374 12.645 23.4374 12.5C23.4374 12.355 23.3971 12.2129 23.321 12.0896C23.2448 11.9662 23.1358 11.8665 23.0062 11.8016L2.69375 1.64531V1.64531Z" fill="#091B48"/>
</svg>
